<svg class="svg-icon" style="width: 1em; height: 1em;vertical-align: middle;fill: currentColor;overflow: hidden;" viewBox="0 0 1024 1024" version="1.1" xmlns="http://www.w3.org/2000/svg"><path d="M371.42016 476.54912H157.94176A106.67008 106.67008 0 0 1 51.2 370.21184V157.5424A106.67008 106.67008 0 0 1 157.94176 51.2h213.4784C430.27456 51.2 481.28 100.09088 481.28 158.72v209.92c0 58.67008-40.76544 107.0592-109.85984 107.90912zM143.31904 102.4a41.0368 41.0368 0 0 0-40.96 40.96v225.34144c0 22.57408 6.87616 61.44 40.96 61.44h245.76c35.36896 0 40.96-38.87616 40.96-61.44V143.36a41.0368 41.0368 0 0 0-40.96-40.96h-245.76z m228.10112 870.4H157.94176A106.6752 106.6752 0 0 1 51.2 866.4576v-212.67456a106.6752 106.6752 0 0 1 106.74176-106.3424h213.4784a106.6752 106.6752 0 0 1 106.74176 106.3424v212.67456A106.6496 106.6496 0 0 1 371.42016 972.8z m-233.22112-378.95168a41.00608 41.00608 0 0 0-40.96 40.96V880.64a41.00608 41.00608 0 0 0 40.96 40.96h245.76a41.00608 41.00608 0 0 0 40.96-40.96v-245.82656a41.00608 41.00608 0 0 0-40.96-40.96h-245.76z m727.86944-117.2992h-213.504a106.67008 106.67008 0 0 1-106.74176-106.33728V157.5424A106.66496 106.66496 0 0 1 652.57984 51.2h213.504A106.67008 106.67008 0 0 1 972.8 157.5424v212.66944a106.64448 106.64448 0 0 1-106.73664 106.33728zM634.92608 97.28a41.00608 41.00608 0 0 0-40.96 40.96v245.82144a41.00608 41.00608 0 0 0 40.96 40.96h245.76a41.00608 41.00608 0 0 0 40.96-40.96V138.24a41.00608 41.00608 0 0 0-40.96-40.96h-245.76z m231.13728 875.52h-213.504a106.6752 106.6752 0 0 1-106.74176-106.3424v-212.67456a106.6752 106.6752 0 0 1 106.74176-106.3424h213.504A106.6752 106.6752 0 0 1 972.8 653.78304v212.67456A106.6496 106.6496 0 0 1 866.06336 972.8z m-231.13728-378.95168a40.96 40.96 0 0 0-40.96 40.96V880.64a40.96 40.96 0 0 0 40.96 40.96h245.76a40.96 40.96 0 0 0 40.96-40.96v-245.82656a40.96 40.96 0 0 0-40.96-40.96h-245.76z m0 0"  /></svg>