<svg class="svg-icon" style="width: 1em; height: 1em;vertical-align: middle;fill: currentColor;overflow: hidden;" viewBox="0 0 1024 1024" version="1.1" xmlns="http://www.w3.org/2000/svg"><path d="M962.013227 310.635853C854.382904 62.963007 566.403051-50.554396 318.751694 57.036018 71.099315 164.66634-42.457997 452.664613 65.13344 700.318016c107.630323 247.671823 395.609153 361.209692 643.261533 253.579369C956.066795 846.286506 1069.623084 558.288233 962.013227 310.635853zM888.092657 318.296323c12.247952-5.336542 26.483164 0.315178 31.800263 12.543687 5.336542 12.247952-0.275269 26.503631-12.523221 31.800263l-57.024761 24.790616c-12.287861 5.354961-26.523073-0.255827-31.82073-12.543687-5.336542-12.208043 0.295735-26.483164 12.543687-31.82073L888.092657 318.296323zM623.211894 166.145018l22.841218-57.872059c4.863774-12.424984 18.942421-18.49012 31.347962-13.605879 12.44545 4.903683 18.529005 18.962887 13.626345 31.386848l-22.802332 57.851593c-4.903683 12.463869-18.922978 18.549471-31.368428 13.645788C624.452141 192.648648 618.328677 178.568978 623.211894 166.145018zM491.14502 87.38114c0-13.389962 10.829649-24.200168 24.180725-24.200168 13.370519 0 24.200168 10.810207 24.200168 24.200168l0 62.184271c0 13.389962-10.850116 24.200168-24.200168 24.200168-13.350053 0-24.180725-10.829649-24.180725-24.200168L491.14502 87.38114zM337.988828 101.459786c12.267395-5.336542 26.523073 0.275269 31.840172 12.543687l24.790616 57.024761c5.336542 12.267395-0.275269 26.503631-12.56313 31.82073-12.247952 5.336542-26.464745-0.295735-31.800263-12.56313l-24.771173-57.024761C320.149531 120.992655 325.780785 106.776885 337.988828 101.459786zM202.063065 193.987133c9.431813-9.431813 24.771173-9.431813 34.222429 0l43.949978 43.969421c9.451256 9.451256 9.451256 24.771173 0 34.222429-9.431813 9.431813-24.75173 9.431813-34.202986 0l-43.969421-43.989887C192.631252 218.71942 192.631252 203.419969 202.063065 193.987133zM103.706967 343.912747c4.923126-12.424984 18.962887-18.529005 31.406291-13.605879l57.851593 22.802332c12.424984 4.923126 18.509563 18.942421 13.645788 31.368428-4.923126 12.44545-18.981307 18.549471-31.406291 13.626345l-57.851593-22.802332C104.926748 370.397958 98.843192 356.338754 103.706967 343.912747zM73.028247 505.477446c0-13.350053 10.829649-24.180725 24.200168-24.180725l62.163805 0c13.389962 0 24.219611 10.829649 24.219611 24.180725 0 13.389962-10.850116 24.200168-24.219611 24.200168L97.228415 529.677615C83.85892 529.658172 73.028247 518.866385 73.028247 505.477446zM140.470265 695.868681c-12.287861 5.336542-26.523073-0.295735-31.840172-12.523221-5.336542-12.267395 0.275269-26.523073 12.543687-31.840172l57.06467-24.790616c12.247952-5.317099 26.464745 0.315178 31.800263 12.56313 5.317099 12.227486-0.295735 26.503631-12.543687 31.82073L140.470265 695.868681zM407.182746 846.091054l-22.781866 57.851593c-4.923126 12.44545-18.981307 18.529005-31.426757 13.626345-12.424984-4.903683-18.49012-18.903535-13.605879-31.368428l22.821775-57.872059c4.883217-12.424984 18.922978-18.509563 31.368428-13.605879C405.961942 819.605843 412.105872 833.665047 407.182746 846.091054zM539.525913 923.55431c0 13.389962-10.850116 24.200168-24.200168 24.200168-13.350053 0-24.180725-10.829649-24.180725-24.200168l0-62.184271c0-13.350053 10.810207-24.180725 24.180725-24.180725s24.200168 10.829649 24.200168 24.180725L539.525913 923.55431zM690.535209 912.724661c-12.267395 5.336542-26.503631-0.295735-31.840172-12.56313l-24.771173-57.044204c-5.336542-12.227486 0.295735-26.523073 12.56313-31.800263 12.208043-5.336542 26.464745 0.295735 31.800263 12.543687l24.771173 57.044204C708.375529 893.15086 702.782138 907.388119 690.535209 912.724661zM592.040964 584.181973 247.765967 816.613696c-30.363542 21.305235-60.352553-6.30152-39.933501-39.874149l228.039693-348.764242 344.17676-232.31302c30.384008-21.305235 60.411905 6.340405 39.893592 39.874149L592.040964 584.181973zM827.564096 819.467697c-9.451256 9.431813-24.790616 9.431813-34.222429 0l-43.969421-43.989887c-9.431813-9.451256-9.431813-24.771173 0-34.202986 9.451256-9.431813 24.771173-9.431813 34.222429 0l43.949978 43.969421C836.995909 794.696524 836.995909 810.016441 827.564096 819.467697zM926.668231 668.321278c-4.923126 12.44545-18.942421 18.509563-31.386848 13.626345l-57.851593-22.821775c-12.424984-4.883217-18.529005-18.922978-13.645788-31.368428 4.923126-12.424984 18.962887-18.509563 31.406291-13.645788l57.851593 22.841218C925.466869 641.856533 931.591357 655.915737 926.668231 668.321278zM933.421029 529.658172l-62.203714 0c-13.370519 0-24.180725-10.810207-24.180725-24.200168 0-13.350053 10.810207-24.180725 24.180725-24.180725l62.203714 0c13.370519 0 24.180725 10.829649 24.180725 24.180725C957.582311 518.866385 946.773128 529.658172 933.421029 529.658172z"  /></svg>